<?xml version="1.0" encoding="utf-8"?>
<!-- Generator: Adobe Illustrator 22.1.0, SVG Export Plug-In . SVG Version: 6.00 Build 0)  -->
<svg version="1.1" id="Calque_1" xmlns="http://www.w3.org/2000/svg" xmlns:xlink="http://www.w3.org/1999/xlink" x="0px" y="0px"
	 viewBox="0 0 271 54.3" style="enable-background:new 0 0 271 54.3;" xml:space="preserve">
<style type="text/css">
	.st0{fill:#E50071;}
	.st1{clip-path:url(#SVGID_2_);fill:#E50071;}
</style>
<polygon class="st0" points="16.1,49.6 1.3,8.9 6.2,8.9 18.1,41.6 30,8.9 35.5,8.9 47.4,41.6 59.2,8.9 64.2,8.9 49.4,49.6 
	45.4,49.6 32.7,14.8 20.1,49.6 "/>
<g>
	<defs>
		<rect id="SVGID_1_" x="-285.8" y="-226.6" width="841.9" height="595.3"/>
	</defs>
	<clipPath id="SVGID_2_">
		<use xlink:href="#SVGID_1_"  style="overflow:visible;"/>
	</clipPath>
	<path class="st1" d="M79.6,49.6c-1.9,0-3.5-0.7-4.8-2c-1.3-1.3-2-2.9-2-4.8V15.7c0-1.9,0.7-3.5,2-4.8c1.3-1.3,2.9-2,4.8-2h27.1
		c1.9,0,3.5,0.7,4.8,2c1.3,1.3,2,2.9,2,4.8v27.1c0,1.9-0.7,3.5-2,4.8c-1.3,1.3-2.9,2-4.8,2H79.6z M79.6,45h27.1
		c0.6,0,1.1-0.2,1.6-0.6c0.4-0.4,0.6-1,0.6-1.6V15.7c0-0.6-0.2-1.1-0.6-1.6c-0.4-0.4-1-0.6-1.6-0.6H79.6c-0.6,0-1.1,0.2-1.6,0.6
		c-0.4,0.4-0.6,1-0.6,1.6v27.1c0,0.6,0.2,1.1,0.6,1.6C78.5,44.8,79,45,79.6,45"/>
	<path class="st1" d="M131.5,49.6c-1.9,0-3.5-0.7-4.8-2c-1.3-1.3-2-2.9-2-4.8V15.7c0-1.9,0.7-3.5,2-4.8c1.3-1.3,2.9-2,4.8-2h27.1
		c1.9,0,3.5,0.7,4.8,2c1.3,1.3,2,2.9,2,4.8v27.1c0,1.9-0.7,3.5-2,4.8c-1.3,1.3-2.9,2-4.8,2H131.5z M131.5,45h27.1
		c0.6,0,1.1-0.2,1.6-0.6c0.4-0.4,0.6-1,0.6-1.6V15.7c0-0.6-0.2-1.1-0.6-1.6c-0.4-0.4-0.9-0.6-1.6-0.6h-27.1c-0.6,0-1.1,0.2-1.6,0.6
		c-0.4,0.4-0.6,1-0.6,1.6v27.1c0,0.6,0.2,1.1,0.6,1.6C130.4,44.8,130.9,45,131.5,45"/>
	<polygon class="st1" points="244.8,49.6 244.8,34.3 226.1,8.9 231.4,8.9 247.1,28.8 262.7,8.9 268.1,8.9 249.4,34.3 249.4,49.6 	
		"/>
	<path class="st1" d="M176.8,15.7v27.1c0,1.9,0.7,3.5,2,4.8c1.3,1.3,2.9,2,4.8,2h33.9V12.7V8.9V1h-4.6v7.9h-29.3
		c-1.9,0-3.5,0.7-4.8,2C177.5,12.2,176.8,13.8,176.8,15.7 M181.4,15.7c0-0.6,0.2-1.1,0.6-1.6c0.4-0.4,1-0.6,1.6-0.6h27.1
		c0.6,0,1.1,0.2,1.6,0.6c0.4,0.4,0.6,1,0.6,1.6v27.1c0,0.6-0.2,1.1-0.6,1.6c-0.4,0.4-1,0.6-1.6,0.6h-27.1c-0.6,0-1.1-0.2-1.6-0.6
		c-0.4-0.4-0.6-0.9-0.6-1.6V15.7z"/>
</g>
</svg>
